# xmcd
#
# Track frame offsets: 
#        150
#        14081
#        27908
#        48077
#        65227
#        80611
#        95459
#        113490
#        135219
#        153213
#        172992
#        198638
#        213528
#        235625
#        249103
#        265318
#        284807
#        305987
#        326796
#        342578
#
# Disc length: 4689 seconds
#
# Revision: 0
# Processed by: cddbd v1.5.2PL0 Copyright (c) Steve Scherf et al.
# Submitted via: ExactAudioCopy v0.99pb5
#
DISCID=25124f14
DTITLE=Various Artist - Let's Get It On
DYEAR=2006
DGENRE=R&B
TTITLE0=L.O.V.E. - Al Green
TTITLE1=Yester Me, Yester You, Yesterday - Stevie Wonder
TTITLE2=You'll Never Find Another Love Like Mine - Lou Rawls
TTITLE3=Don't Leave Me This Way - Harold Melvin and The Blue Notes
TTITLE4=Someday We'll Be Together - Diana Ross and The Supremes
TTITLE5=Rock Your Baby - George McCrae
TTITLE6=Sexual Healing - Marvin Gaye
TTITLE7=Me and Mrs Jones - Billy Paul
TTITLE8=Lady Love - Lou Rawls
TTITLE9=Disco Lady - Johnnie Taylor
TTITLE10=TSOP (The Sound of Philidelphia) - MFSB and The Three Degrees
TTITLE11=Do It Any Way You Wanna - People's Choice
TTITLE12=Let's Get It On - Marvin Gaye
TTITLE13=Love Train - The O'Jays
TTITLE14=Oh Girl - The Chi-Lites
TTITLE15=Caravan Of Love - Isley Jasper Isley
TTITLE16=Midnight Train To Georgia - Gladys Knight and The Pips
TTITLE17=How 'Bout Us - Champaign
TTITLE18=Kiss and Say Goodbye - The Manhattans
TTITLE19=Ain't No Sunshine - Bill Withers
EXTD=
EXTT0=
EXTT1=
EXTT2=
EXTT3=
EXTT4=
EXTT5=
EXTT6=
EXTT7=
EXTT8=
EXTT9=
EXTT10=
EXTT11=
EXTT12=
EXTT13=
EXTT14=
EXTT15=
EXTT16=
EXTT17=
EXTT18=
EXTT19=
PLAYORDER=
